<?xml version="1.0" standalone="no"?>
<!DOCTYPE svg PUBLIC "-//W3C//DTD SVG 20010904//EN"
 "http://www.w3.org/TR/2001/REC-SVG-20010904/DTD/svg10.dtd">
<svg version="1.0" xmlns="http://www.w3.org/2000/svg"
 width="144.000000pt" height="144.000000pt" viewBox="0 0 144.000000 144.000000"
 preserveAspectRatio="xMidYMid meet">

<g transform="translate(0.000000,144.000000) scale(0.100000,-0.100000)"
fill="#000000" stroke="none">
<path d="M594 1385 c-135 -29 -296 -128 -381 -234 -54 -67 -117 -193 -138
-276 -21 -85 -19 -234 5 -329 51 -198 202 -374 395 -458 437 -192 942 138 946
618 1 105 -12 179 -47 265 -67 165 -189 291 -356 369 -122 57 -288 75 -424 45z
m346 -35 c110 -37 181 -81 266 -165 69 -67 89 -95 127 -175 54 -113 67 -170
67 -294 0 -186 -62 -337 -191 -467 -62 -63 -93 -85 -170 -122 -118 -56 -179
-71 -299 -71 -120 0 -181 15 -299 71 -75 36 -108 59 -165 117 -129 130 -185
256 -193 437 -4 79 -1 127 12 183 53 241 244 435 487 497 99 25 265 20 358
-11z"/>
<path d="M546 1121 c-16 -11 -35 -30 -42 -43 -16 -27 -18 -128 -4 -128 6 0 10
25 10 56 0 48 4 59 29 85 22 22 39 29 68 29 l38 0 -32 -20 c-18 -10 -39 -30
-48 -44 -20 -30 -32 -106 -17 -106 5 0 13 20 16 44 9 57 46 96 91 96 43 0 58
-20 63 -86 2 -30 9 -54 15 -54 6 0 8 23 4 63 l-5 62 19 -24 c11 -14 19 -39 19
-62 0 -21 5 -39 10 -39 17 0 11 73 -9 106 -22 36 -116 84 -164 84 -17 0 -45
-9 -61 -19z"/>
<path d="M345 900 c3 -5 15 -10 26 -10 10 0 19 5 19 10 0 6 -12 10 -26 10 -14
0 -23 -4 -19 -10z"/>
<path d="M430 615 l0 -295 55 0 55 0 0 185 0 185 185 0 185 0 0 110 0 110 -55
0 c-59 0 -72 -15 -39 -47 33 -34 -8 -90 -53 -72 -27 10 -33 66 -8 75 8 4 15
15 15 25 0 17 -9 19 -100 19 -91 0 -100 -2 -100 -19 0 -10 7 -22 16 -25 10 -4
14 -15 12 -32 -7 -59 -88 -64 -88 -6 0 16 7 35 15 42 31 26 17 40 -40 40 l-55
0 0 -295z"/>
<path d="M340 585 l0 -265 25 0 25 0 0 265 0 265 -25 0 -25 0 0 -265z"/>
<path d="M775 830 c3 -5 8 -10 11 -10 2 0 4 5 4 10 0 6 -5 10 -11 10 -5 0 -7
-4 -4 -10z"/>
<path d="M570 490 l0 -170 285 0 285 0 0 170 0 170 -285 0 -285 0 0 -170z
m218 128 c17 -17 15 -53 -3 -68 -30 -24 -8 -107 34 -130 35 -18 90 -12 116 14
32 32 43 91 21 115 -31 34 -14 81 29 81 41 0 62 -53 31 -79 -7 -6 -16 -34 -18
-62 -7 -68 -46 -109 -110 -116 -86 -10 -148 43 -148 125 0 23 -6 45 -15 52
-32 26 -12 80 30 80 12 0 26 -5 33 -12z"/>
</g>
</svg>
